<?xml version="1.0" encoding="UTF-8" standalone="no"?><svg xmlns="http://www.w3.org/2000/svg" xmlns:xlink="http://www.w3.org/1999/xlink" contentScriptType="application/ecmascript" contentStyleType="text/css" height="517px" preserveAspectRatio="none" style="width:368px;height:517px;" version="1.1" viewBox="0 0 368 517" width="368px" zoomAndPan="magnify"><defs><filter height="300%" id="f1nmnn9rkgj68w" width="300%" x="-1" y="-1"><feGaussianBlur result="blurOut" stdDeviation="2.0"/><feColorMatrix in="blurOut" result="blurOut2" type="matrix" values="0 0 0 0 0 0 0 0 0 0 0 0 0 0 0 0 0 0 .4 0"/><feOffset dx="4.0" dy="4.0" in="blurOut2" result="blurOut3"/><feBlend in="SourceGraphic" in2="blurOut3" mode="normal"/></filter></defs><g><!--MD5=[965944b953648f99dc93b58e6ce75fbc]
cluster Cadastro de Usuários--><polygon fill="#FFFFFF" filter="url(#f1nmnn9rkgj68w)" points="22,24,198,24,205,46.2969,346,46.2969,346,505,22,505,22,24" style="stroke: #000000; stroke-width: 1.5;"/><line style="stroke: #000000; stroke-width: 1.5;" x1="22" x2="205" y1="46.2969" y2="46.2969"/><text fill="#000000" font-family="sans-serif" font-size="14" font-weight="bold" lengthAdjust="spacingAndGlyphs" textLength="170" x="26" y="38.9951">Cadastro de Usuários</text><!--MD5=[ec4e9ac521a71f7b069122f6baf1b57e]
class Pessoa--><rect fill="#FEFECE" filter="url(#f1nmnn9rkgj68w)" height="112.0234" id="Pessoa" style="stroke: #A80036; stroke-width: 1.5;" width="292" x="38" y="377"/><ellipse cx="156.75" cy="393" fill="#ADD1B2" rx="11" ry="11" style="stroke: #A80036; stroke-width: 1.0;"/><path d="M159.7188,398.6406 Q159.1406,398.9375 158.5,399.0781 Q157.8594,399.2344 157.1563,399.2344 Q154.6563,399.2344 153.3281,397.5938 Q152.0156,395.9375 152.0156,392.8125 Q152.0156,389.6875 153.3281,388.0313 Q154.6563,386.375 157.1563,386.375 Q157.8594,386.375 158.5,386.5313 Q159.1563,386.6875 159.7188,386.9844 L159.7188,389.7031 Q159.0938,389.125 158.5,388.8594 Q157.9063,388.5781 157.2813,388.5781 Q155.9375,388.5781 155.25,389.6563 Q154.5625,390.7188 154.5625,392.8125 Q154.5625,394.9063 155.25,395.9844 Q155.9375,397.0469 157.2813,397.0469 Q157.9063,397.0469 158.5,396.7813 Q159.0938,396.5 159.7188,395.9219 L159.7188,398.6406 Z "/><text fill="#000000" font-family="sans-serif" font-size="12" lengthAdjust="spacingAndGlyphs" textLength="46" x="177.25" y="397.1543">Pessoa</text><line style="stroke: #A80036; stroke-width: 1.5;" x1="39" x2="329" y1="409" y2="409"/><rect fill="none" height="6" style="stroke: #C82930; stroke-width: 1.0;" width="6" x="46" y="417"/><text fill="#000000" font-family="sans-serif" font-size="11" lengthAdjust="spacingAndGlyphs" textLength="74" x="58" y="423.2104">nome: String</text><rect fill="none" height="6" style="stroke: #C82930; stroke-width: 1.0;" width="6" x="46" y="429.8047"/><text fill="#000000" font-family="sans-serif" font-size="11" lengthAdjust="spacingAndGlyphs" textLength="53" x="58" y="436.0151">idade: int</text><rect fill="none" height="6" style="stroke: #C82930; stroke-width: 1.0;" width="6" x="46" y="442.6094"/><text fill="#000000" font-family="sans-serif" font-size="11" lengthAdjust="spacingAndGlyphs" textLength="73" x="58" y="448.8198">email: String</text><line style="stroke: #A80036; stroke-width: 1.5;" x1="39" x2="329" y1="455.4141" y2="455.4141"/><ellipse cx="49" cy="466.4141" fill="#84BE84" rx="3" ry="3" style="stroke: #038048; stroke-width: 1.0;"/><text fill="#000000" font-family="sans-serif" font-size="11" lengthAdjust="spacingAndGlyphs" textLength="266" x="58" y="469.6245">Pessoa(nome: String, idade: int, email: String)</text><ellipse cx="49" cy="479.2188" fill="#84BE84" rx="3" ry="3" style="stroke: #038048; stroke-width: 1.0;"/><text fill="#000000" font-family="sans-serif" font-size="11" lengthAdjust="spacingAndGlyphs" textLength="95" x="58" y="482.4292">toString(): String</text><!--MD5=[9f12c60ce30c4cb9bbda793e95192a89]
class SistemaCadastro--><rect fill="#FEFECE" filter="url(#f1nmnn9rkgj68w)" height="99.2188" id="SistemaCadastro" style="stroke: #A80036; stroke-width: 1.5;" width="272" x="48" y="218"/><ellipse cx="126.25" cy="234" fill="#ADD1B2" rx="11" ry="11" style="stroke: #A80036; stroke-width: 1.0;"/><path d="M129.2188,239.6406 Q128.6406,239.9375 128,240.0781 Q127.3594,240.2344 126.6563,240.2344 Q124.1563,240.2344 122.8281,238.5938 Q121.5156,236.9375 121.5156,233.8125 Q121.5156,230.6875 122.8281,229.0313 Q124.1563,227.375 126.6563,227.375 Q127.3594,227.375 128,227.5313 Q128.6563,227.6875 129.2188,227.9844 L129.2188,230.7031 Q128.5938,230.125 128,229.8594 Q127.4063,229.5781 126.7813,229.5781 Q125.4375,229.5781 124.75,230.6563 Q124.0625,231.7188 124.0625,233.8125 Q124.0625,235.9063 124.75,236.9844 Q125.4375,238.0469 126.7813,238.0469 Q127.4063,238.0469 128,237.7813 Q128.5938,237.5 129.2188,236.9219 L129.2188,239.6406 Z "/><text fill="#000000" font-family="sans-serif" font-size="12" lengthAdjust="spacingAndGlyphs" textLength="107" x="146.75" y="238.1543">SistemaCadastro</text><line style="stroke: #A80036; stroke-width: 1.5;" x1="49" x2="319" y1="250" y2="250"/><line style="stroke: #A80036; stroke-width: 1.5;" x1="49" x2="319" y1="258" y2="258"/><ellipse cx="59" cy="269" fill="#84BE84" rx="3" ry="3" style="stroke: #038048; stroke-width: 1.0;"/><text fill="#000000" font-family="sans-serif" font-size="11" lengthAdjust="spacingAndGlyphs" textLength="183" x="68" y="272.2104">salvarCadastro(p: Pessoa): void</text><ellipse cx="59" cy="281.8047" fill="#84BE84" rx="3" ry="3" style="stroke: #038048; stroke-width: 1.0;"/><text fill="#000000" font-family="sans-serif" font-size="11" lengthAdjust="spacingAndGlyphs" textLength="127" x="68" y="285.0151">listarCadastros(): void</text><ellipse cx="59" cy="294.6094" fill="#84BE84" rx="3" ry="3" style="stroke: #038048; stroke-width: 1.0;"/><text fill="#000000" font-family="sans-serif" font-size="11" lengthAdjust="spacingAndGlyphs" textLength="246" x="68" y="297.8198">buscarCadastro(nomeArquivo: String): void</text><ellipse cx="59" cy="307.4141" fill="#84BE84" rx="3" ry="3" style="stroke: #038048; stroke-width: 1.0;"/><text fill="#000000" font-family="sans-serif" font-size="11" lengthAdjust="spacingAndGlyphs" textLength="201" x="68" y="310.6245">excluirCadastro(email: String): void</text><!--MD5=[84718776d214be480e4c259efcb737fc]
class Main--><rect fill="#FEFECE" filter="url(#f1nmnn9rkgj68w)" height="99.2188" id="Main" style="stroke: #A80036; stroke-width: 1.5;" width="169" x="99.5" y="59"/><ellipse cx="165.25" cy="75" fill="#ADD1B2" rx="11" ry="11" style="stroke: #A80036; stroke-width: 1.0;"/><path d="M168.2188,80.6406 Q167.6406,80.9375 167,81.0781 Q166.3594,81.2344 165.6563,81.2344 Q163.1563,81.2344 161.8281,79.5938 Q160.5156,77.9375 160.5156,74.8125 Q160.5156,71.6875 161.8281,70.0313 Q163.1563,68.375 165.6563,68.375 Q166.3594,68.375 167,68.5313 Q167.6563,68.6875 168.2188,68.9844 L168.2188,71.7031 Q167.5938,71.125 167,70.8594 Q166.4063,70.5781 165.7813,70.5781 Q164.4375,70.5781 163.75,71.6563 Q163.0625,72.7188 163.0625,74.8125 Q163.0625,76.9063 163.75,77.9844 Q164.4375,79.0469 165.7813,79.0469 Q166.4063,79.0469 167,78.7813 Q167.5938,78.5 168.2188,77.9219 L168.2188,80.6406 Z "/><text fill="#000000" font-family="sans-serif" font-size="12" lengthAdjust="spacingAndGlyphs" textLength="29" x="185.75" y="79.1543">Main</text><line style="stroke: #A80036; stroke-width: 1.5;" x1="100.5" x2="267.5" y1="91" y2="91"/><line style="stroke: #A80036; stroke-width: 1.5;" x1="100.5" x2="267.5" y1="99" y2="99"/><ellipse cx="110.5" cy="110" fill="#84BE84" rx="3" ry="3" style="stroke: #038048; stroke-width: 1.0;"/><text fill="#000000" font-family="sans-serif" font-size="11" lengthAdjust="spacingAndGlyphs" textLength="143" x="119.5" y="113.2104">main(args: String[]): void</text><rect fill="#F24D5C" height="6" style="stroke: #C82930; stroke-width: 1.0;" width="6" x="107.5" y="119.8047"/><text fill="#000000" font-family="sans-serif" font-size="11" lengthAdjust="spacingAndGlyphs" textLength="94" x="119.5" y="126.0151">cadastrar(): void</text><rect fill="#F24D5C" height="6" style="stroke: #C82930; stroke-width: 1.0;" width="6" x="107.5" y="132.6094"/><text fill="#000000" font-family="sans-serif" font-size="11" lengthAdjust="spacingAndGlyphs" textLength="78" x="119.5" y="138.8198">buscar(): void</text><rect fill="#F24D5C" height="6" style="stroke: #C82930; stroke-width: 1.0;" width="6" x="107.5" y="145.4141"/><text fill="#000000" font-family="sans-serif" font-size="11" lengthAdjust="spacingAndGlyphs" textLength="76" x="119.5" y="151.6245">excluir(): void</text><!--MD5=[03bf64130470d3a72076af86e0f2150a]
link Main to SistemaCadastro--><path d="M184,158.32 C184,175.53 184,194.97 184,212.58 " fill="none" id="Main-&gt;SistemaCadastro" style="stroke: #A80036; stroke-width: 1.0;"/><polygon fill="#A80036" points="184,217.98,188,208.98,184,212.98,180,208.98,184,217.98" style="stroke: #A80036; stroke-width: 1.0;"/><!--MD5=[05f5af128f196756101cc44efb386090]
link SistemaCadastro to Pessoa--><path d="M184,317.11 C184,334.32 184,353.89 184,371.93 " fill="none" id="SistemaCadastro-&gt;Pessoa" style="stroke: #A80036; stroke-width: 1.0;"/><polygon fill="#A80036" points="184,376.98,188,367.98,184,371.98,180,367.98,184,376.98" style="stroke: #A80036; stroke-width: 1.0;"/><!--MD5=[f8b9390d9feb6a2c41d88ec87b3c4377]
@startuml Classes

package "Cadastro de Usuários" {
    class Pessoa {
        - nome: String
        - idade: int
        - email: String
        + Pessoa(nome: String, idade: int, email: String)
        + toString(): String
    }

    class SistemaCadastro {
        + salvarCadastro(p: Pessoa): void
        + listarCadastros(): void
        + buscarCadastro(nomeArquivo: String): void
        + excluirCadastro(email: String): void
    }

    class Main {
        + main(args: String[]): void
        - cadastrar(): void
        - buscar(): void
        - excluir(): void
    }

    Main - -> SistemaCadastro
    SistemaCadastro - -> Pessoa
}
@enduml

PlantUML version 1.2020.02(Sun Mar 01 10:22:07 UTC 2020)
(GPL source distribution)
Java Runtime: OpenJDK Runtime Environment
JVM: OpenJDK 64-Bit Server VM
Java Version: 21.0.7+6-LTS
Operating System: Linux
Default Encoding: UTF-8
Language: en
Country: null
--></g></svg>