<?xml version="1.0" encoding="UTF-8" standalone="no"?><svg xmlns="http://www.w3.org/2000/svg" xmlns:xlink="http://www.w3.org/1999/xlink" contentScriptType="application/ecmascript" contentStyleType="text/css" height="989px" preserveAspectRatio="none" style="width:712px;height:989px;" version="1.1" viewBox="0 0 712 989" width="712px" zoomAndPan="magnify"><defs><filter height="300%" id="fcfoml9qs8atf" width="300%" x="-1" y="-1"><feGaussianBlur result="blurOut" stdDeviation="2.0"/><feColorMatrix in="blurOut" result="blurOut2" type="matrix" values="0 0 0 0 0 0 0 0 0 0 0 0 0 0 0 0 0 0 .4 0"/><feOffset dx="4.0" dy="4.0" in="blurOut2" result="blurOut3"/><feBlend in="SourceGraphic" in2="blurOut3" mode="normal"/></filter></defs><g><line style="stroke: #A80036; stroke-width: 1.0; stroke-dasharray: 5.0,5.0;" x1="37" x2="37" y1="86.2969" y2="902.6172"/><line style="stroke: #A80036; stroke-width: 1.0; stroke-dasharray: 5.0,5.0;" x1="300" x2="300" y1="86.2969" y2="902.6172"/><line style="stroke: #A80036; stroke-width: 1.0; stroke-dasharray: 5.0,5.0;" x1="519.5" x2="519.5" y1="86.2969" y2="902.6172"/><line style="stroke: #A80036; stroke-width: 1.0; stroke-dasharray: 5.0,5.0;" x1="660.5" x2="660.5" y1="86.2969" y2="902.6172"/><text fill="#000000" font-family="sans-serif" font-size="14" lengthAdjust="spacingAndGlyphs" textLength="52" x="8" y="82.9951">Usuario</text><ellipse cx="37" cy="13" fill="#FEFECE" filter="url(#fcfoml9qs8atf)" rx="8" ry="8" style="stroke: #A80036; stroke-width: 2.0;"/><path d="M37,21 L37,48 M24,29 L50,29 M37,48 L24,63 M37,48 L50,63 " fill="none" filter="url(#fcfoml9qs8atf)" style="stroke: #A80036; stroke-width: 2.0;"/><text fill="#000000" font-family="sans-serif" font-size="14" lengthAdjust="spacingAndGlyphs" textLength="52" x="8" y="914.6123">Usuario</text><ellipse cx="37" cy="927.9141" fill="#FEFECE" filter="url(#fcfoml9qs8atf)" rx="8" ry="8" style="stroke: #A80036; stroke-width: 2.0;"/><path d="M37,935.9141 L37,962.9141 M24,943.9141 L50,943.9141 M37,962.9141 L24,977.9141 M37,962.9141 L50,977.9141 " fill="none" filter="url(#fcfoml9qs8atf)" style="stroke: #A80036; stroke-width: 2.0;"/><rect fill="#FEFECE" filter="url(#fcfoml9qs8atf)" height="30.2969" style="stroke: #A80036; stroke-width: 1.5;" width="46" x="275" y="51"/><text fill="#000000" font-family="sans-serif" font-size="14" lengthAdjust="spacingAndGlyphs" textLength="32" x="282" y="70.9951">Main</text><rect fill="#FEFECE" filter="url(#fcfoml9qs8atf)" height="30.2969" style="stroke: #A80036; stroke-width: 1.5;" width="46" x="275" y="901.6172"/><text fill="#000000" font-family="sans-serif" font-size="14" lengthAdjust="spacingAndGlyphs" textLength="32" x="282" y="921.6123">Main</text><rect fill="#FEFECE" filter="url(#fcfoml9qs8atf)" height="30.2969" style="stroke: #A80036; stroke-width: 1.5;" width="131" x="452.5" y="51"/><text fill="#000000" font-family="sans-serif" font-size="14" lengthAdjust="spacingAndGlyphs" textLength="117" x="459.5" y="70.9951">SistemaCadastro</text><rect fill="#FEFECE" filter="url(#fcfoml9qs8atf)" height="30.2969" style="stroke: #A80036; stroke-width: 1.5;" width="131" x="452.5" y="901.6172"/><text fill="#000000" font-family="sans-serif" font-size="14" lengthAdjust="spacingAndGlyphs" textLength="117" x="459.5" y="921.6123">SistemaCadastro</text><rect fill="#FEFECE" filter="url(#fcfoml9qs8atf)" height="30.2969" style="stroke: #A80036; stroke-width: 1.5;" width="65" x="626.5" y="51"/><text fill="#000000" font-family="sans-serif" font-size="14" lengthAdjust="spacingAndGlyphs" textLength="51" x="633.5" y="70.9951">Pessoa</text><rect fill="#FEFECE" filter="url(#fcfoml9qs8atf)" height="30.2969" style="stroke: #A80036; stroke-width: 1.5;" width="65" x="626.5" y="901.6172"/><text fill="#000000" font-family="sans-serif" font-size="14" lengthAdjust="spacingAndGlyphs" textLength="51" x="633.5" y="921.6123">Pessoa</text><rect fill="#EEEEEE" filter="url(#fcfoml9qs8atf)" height="3" style="stroke: #EEEEEE; stroke-width: 1.0;" width="697.5" x="3" y="116.8633"/><line style="stroke: #000000; stroke-width: 1.0;" x1="3" x2="700.5" y1="116.8633" y2="116.8633"/><line style="stroke: #000000; stroke-width: 1.0;" x1="3" x2="700.5" y1="119.8633" y2="119.8633"/><rect fill="#EEEEEE" filter="url(#fcfoml9qs8atf)" height="23.1328" style="stroke: #000000; stroke-width: 2.0;" width="86" x="308.75" y="106.2969"/><text fill="#000000" font-family="sans-serif" font-size="13" font-weight="bold" lengthAdjust="spacingAndGlyphs" textLength="67" x="314.75" y="122.3638">Cadastro</text><polygon fill="#A80036" points="288,156.5625,298,160.5625,288,164.5625,292,160.5625" style="stroke: #A80036; stroke-width: 1.0;"/><line style="stroke: #A80036; stroke-width: 1.0;" x1="37" x2="294" y1="160.5625" y2="160.5625"/><text fill="#000000" font-family="sans-serif" font-size="13" lengthAdjust="spacingAndGlyphs" textLength="109" x="44" y="155.4966">solicita cadastrar</text><polygon fill="#A80036" points="48,185.6953,38,189.6953,48,193.6953,44,189.6953" style="stroke: #A80036; stroke-width: 1.0;"/><line style="stroke: #A80036; stroke-width: 1.0;" x1="42" x2="299" y1="189.6953" y2="189.6953"/><text fill="#000000" font-family="sans-serif" font-size="13" lengthAdjust="spacingAndGlyphs" textLength="171" x="54" y="184.6294">solicita nome, idade, email</text><polygon fill="#A80036" points="288,214.8281,298,218.8281,288,222.8281,292,218.8281" style="stroke: #A80036; stroke-width: 1.0;"/><line style="stroke: #A80036; stroke-width: 1.0;" x1="37" x2="294" y1="218.8281" y2="218.8281"/><text fill="#000000" font-family="sans-serif" font-size="13" lengthAdjust="spacingAndGlyphs" textLength="77" x="44" y="213.7622">envia dados</text><polygon fill="#A80036" points="508,243.9609,518,247.9609,508,251.9609,512,247.9609" style="stroke: #A80036; stroke-width: 1.0;"/><line style="stroke: #A80036; stroke-width: 1.0;" x1="300" x2="514" y1="247.9609" y2="247.9609"/><text fill="#000000" font-family="sans-serif" font-size="13" lengthAdjust="spacingAndGlyphs" textLength="152" x="307" y="242.895">salvarCadastro(Pessoa)</text><polygon fill="#A80036" points="649,273.0938,659,277.0938,649,281.0938,653,277.0938" style="stroke: #A80036; stroke-width: 1.0;"/><line style="stroke: #A80036; stroke-width: 1.0;" x1="520" x2="655" y1="277.0938" y2="277.0938"/><text fill="#000000" font-family="sans-serif" font-size="13" lengthAdjust="spacingAndGlyphs" textLength="67" x="527" y="272.0278">cria objeto</text><line style="stroke: #A80036; stroke-width: 1.0;" x1="520" x2="562" y1="306.2266" y2="306.2266"/><line style="stroke: #A80036; stroke-width: 1.0;" x1="562" x2="562" y1="306.2266" y2="319.2266"/><line style="stroke: #A80036; stroke-width: 1.0;" x1="521" x2="562" y1="319.2266" y2="319.2266"/><polygon fill="#A80036" points="531,315.2266,521,319.2266,531,323.2266,527,319.2266" style="stroke: #A80036; stroke-width: 1.0;"/><text fill="#000000" font-family="sans-serif" font-size="13" lengthAdjust="spacingAndGlyphs" textLength="116" x="527" y="301.1606">gera arquivo JSON</text><polygon fill="#A80036" points="311,344.3594,301,348.3594,311,352.3594,307,348.3594" style="stroke: #A80036; stroke-width: 1.0;"/><line style="stroke: #A80036; stroke-width: 1.0;" x1="305" x2="519" y1="348.3594" y2="348.3594"/><text fill="#000000" font-family="sans-serif" font-size="13" lengthAdjust="spacingAndGlyphs" textLength="116" x="317" y="343.2935">confirma cadastro</text><polygon fill="#A80036" points="48,373.4922,38,377.4922,48,381.4922,44,377.4922" style="stroke: #A80036; stroke-width: 1.0;"/><line style="stroke: #A80036; stroke-width: 1.0;" x1="42" x2="299" y1="377.4922" y2="377.4922"/><text fill="#000000" font-family="sans-serif" font-size="13" lengthAdjust="spacingAndGlyphs" textLength="220" x="54" y="372.4263">exibe mensagem "Cadastro salvo"</text><rect fill="#EEEEEE" filter="url(#fcfoml9qs8atf)" height="3" style="stroke: #EEEEEE; stroke-width: 1.0;" width="697.5" x="3" y="406.0586"/><line style="stroke: #000000; stroke-width: 1.0;" x1="3" x2="700.5" y1="406.0586" y2="406.0586"/><line style="stroke: #000000; stroke-width: 1.0;" x1="3" x2="700.5" y1="409.0586" y2="409.0586"/><rect fill="#EEEEEE" filter="url(#fcfoml9qs8atf)" height="23.1328" style="stroke: #000000; stroke-width: 2.0;" width="141" x="281.25" y="395.4922"/><text fill="#000000" font-family="sans-serif" font-size="13" font-weight="bold" lengthAdjust="spacingAndGlyphs" textLength="122" x="287.25" y="411.5591">Buscar Cadastro</text><polygon fill="#A80036" points="288,445.7578,298,449.7578,288,453.7578,292,449.7578" style="stroke: #A80036; stroke-width: 1.0;"/><line style="stroke: #A80036; stroke-width: 1.0;" x1="37" x2="294" y1="449.7578" y2="449.7578"/><text fill="#000000" font-family="sans-serif" font-size="13" lengthAdjust="spacingAndGlyphs" textLength="91" x="44" y="444.6919">solicita buscar</text><polygon fill="#A80036" points="48,474.8906,38,478.8906,48,482.8906,44,478.8906" style="stroke: #A80036; stroke-width: 1.0;"/><line style="stroke: #A80036; stroke-width: 1.0;" x1="42" x2="299" y1="478.8906" y2="478.8906"/><text fill="#000000" font-family="sans-serif" font-size="13" lengthAdjust="spacingAndGlyphs" textLength="124" x="54" y="473.8247">solicita email/nome</text><polygon fill="#A80036" points="288,504.0234,298,508.0234,288,512.0234,292,508.0234" style="stroke: #A80036; stroke-width: 1.0;"/><line style="stroke: #A80036; stroke-width: 1.0;" x1="37" x2="294" y1="508.0234" y2="508.0234"/><text fill="#000000" font-family="sans-serif" font-size="13" lengthAdjust="spacingAndGlyphs" textLength="114" x="44" y="502.9575">envia email/nome</text><polygon fill="#A80036" points="508,533.1563,518,537.1563,508,541.1563,512,537.1563" style="stroke: #A80036; stroke-width: 1.0;"/><line style="stroke: #A80036; stroke-width: 1.0;" x1="300" x2="514" y1="537.1563" y2="537.1563"/><text fill="#000000" font-family="sans-serif" font-size="13" lengthAdjust="spacingAndGlyphs" textLength="196" x="307" y="532.0903">buscarCadastro(nomeArquivo)</text><polygon fill="#A80036" points="649,562.2891,659,566.2891,649,570.2891,653,566.2891" style="stroke: #A80036; stroke-width: 1.0;"/><line style="stroke: #A80036; stroke-width: 1.0;" x1="520" x2="655" y1="566.2891" y2="566.2891"/><text fill="#000000" font-family="sans-serif" font-size="13" lengthAdjust="spacingAndGlyphs" textLength="47" x="527" y="561.2231">lê JSON</text><polygon fill="#A80036" points="311,591.4219,301,595.4219,311,599.4219,307,595.4219" style="stroke: #A80036; stroke-width: 1.0;"/><line style="stroke: #A80036; stroke-width: 1.0;" x1="305" x2="519" y1="595.4219" y2="595.4219"/><text fill="#000000" font-family="sans-serif" font-size="13" lengthAdjust="spacingAndGlyphs" textLength="90" x="317" y="590.356">retorna dados</text><polygon fill="#A80036" points="48,620.5547,38,624.5547,48,628.5547,44,624.5547" style="stroke: #A80036; stroke-width: 1.0;"/><line style="stroke: #A80036; stroke-width: 1.0;" x1="42" x2="299" y1="624.5547" y2="624.5547"/><text fill="#000000" font-family="sans-serif" font-size="13" lengthAdjust="spacingAndGlyphs" textLength="77" x="54" y="619.4888">exibe dados</text><rect fill="#EEEEEE" filter="url(#fcfoml9qs8atf)" height="3" style="stroke: #EEEEEE; stroke-width: 1.0;" width="697.5" x="3" y="653.1211"/><line style="stroke: #000000; stroke-width: 1.0;" x1="3" x2="700.5" y1="653.1211" y2="653.1211"/><line style="stroke: #000000; stroke-width: 1.0;" x1="3" x2="700.5" y1="656.1211" y2="656.1211"/><rect fill="#EEEEEE" filter="url(#fcfoml9qs8atf)" height="23.1328" style="stroke: #000000; stroke-width: 2.0;" width="139" x="282.25" y="642.5547"/><text fill="#000000" font-family="sans-serif" font-size="13" font-weight="bold" lengthAdjust="spacingAndGlyphs" textLength="120" x="288.25" y="658.6216">Excluir Cadastro</text><polygon fill="#A80036" points="288,692.8203,298,696.8203,288,700.8203,292,696.8203" style="stroke: #A80036; stroke-width: 1.0;"/><line style="stroke: #A80036; stroke-width: 1.0;" x1="37" x2="294" y1="696.8203" y2="696.8203"/><text fill="#000000" font-family="sans-serif" font-size="13" lengthAdjust="spacingAndGlyphs" textLength="104" x="44" y="691.7544">solicita exclusão</text><polygon fill="#A80036" points="48,721.9531,38,725.9531,48,729.9531,44,725.9531" style="stroke: #A80036; stroke-width: 1.0;"/><line style="stroke: #A80036; stroke-width: 1.0;" x1="42" x2="299" y1="725.9531" y2="725.9531"/><text fill="#000000" font-family="sans-serif" font-size="13" lengthAdjust="spacingAndGlyphs" textLength="124" x="54" y="720.8872">solicita email/nome</text><polygon fill="#A80036" points="288,751.0859,298,755.0859,288,759.0859,292,755.0859" style="stroke: #A80036; stroke-width: 1.0;"/><line style="stroke: #A80036; stroke-width: 1.0;" x1="37" x2="294" y1="755.0859" y2="755.0859"/><text fill="#000000" font-family="sans-serif" font-size="13" lengthAdjust="spacingAndGlyphs" textLength="114" x="44" y="750.02">envia email/nome</text><polygon fill="#A80036" points="508,780.2188,518,784.2188,508,788.2188,512,784.2188" style="stroke: #A80036; stroke-width: 1.0;"/><line style="stroke: #A80036; stroke-width: 1.0;" x1="300" x2="514" y1="784.2188" y2="784.2188"/><text fill="#000000" font-family="sans-serif" font-size="13" lengthAdjust="spacingAndGlyphs" textLength="144" x="307" y="779.1528">excluirCadastro(email)</text><line style="stroke: #A80036; stroke-width: 1.0;" x1="520" x2="562" y1="813.3516" y2="813.3516"/><line style="stroke: #A80036; stroke-width: 1.0;" x1="562" x2="562" y1="813.3516" y2="826.3516"/><line style="stroke: #A80036; stroke-width: 1.0;" x1="521" x2="562" y1="826.3516" y2="826.3516"/><polygon fill="#A80036" points="531,822.3516,521,826.3516,531,830.3516,527,826.3516" style="stroke: #A80036; stroke-width: 1.0;"/><text fill="#000000" font-family="sans-serif" font-size="13" lengthAdjust="spacingAndGlyphs" textLength="127" x="527" y="808.2856">deleta arquivo JSON</text><polygon fill="#A80036" points="311,851.4844,301,855.4844,311,859.4844,307,855.4844" style="stroke: #A80036; stroke-width: 1.0;"/><line style="stroke: #A80036; stroke-width: 1.0;" x1="305" x2="519" y1="855.4844" y2="855.4844"/><text fill="#000000" font-family="sans-serif" font-size="13" lengthAdjust="spacingAndGlyphs" textLength="116" x="317" y="850.4185">confirma exclusão</text><polygon fill="#A80036" points="48,880.6172,38,884.6172,48,888.6172,44,884.6172" style="stroke: #A80036; stroke-width: 1.0;"/><line style="stroke: #A80036; stroke-width: 1.0;" x1="42" x2="299" y1="884.6172" y2="884.6172"/><text fill="#000000" font-family="sans-serif" font-size="13" lengthAdjust="spacingAndGlyphs" textLength="239" x="54" y="879.5513">exibe mensagem "Cadastro excluído"</text><!--MD5=[c7ebd551d28268ba9e417b23ee6e0dc3]
@startuml Sequencia 

actor Usuario
participant Main
participant SistemaCadastro
participant Pessoa

== Cadastro ==
Usuario -> Main: solicita cadastrar
Main -> Usuario: solicita nome, idade, email
Usuario -> Main: envia dados
Main -> SistemaCadastro: salvarCadastro(Pessoa)
SistemaCadastro -> Pessoa: cria objeto
SistemaCadastro -> SistemaCadastro: gera arquivo JSON
SistemaCadastro -> Main: confirma cadastro
Main -> Usuario: exibe mensagem "Cadastro salvo"

== Buscar Cadastro ==
Usuario -> Main: solicita buscar
Main -> Usuario: solicita email/nome
Usuario -> Main: envia email/nome
Main -> SistemaCadastro: buscarCadastro(nomeArquivo)
SistemaCadastro -> Pessoa: lê JSON
SistemaCadastro -> Main: retorna dados
Main -> Usuario: exibe dados

== Excluir Cadastro ==
Usuario -> Main: solicita exclusão
Main -> Usuario: solicita email/nome
Usuario -> Main: envia email/nome
Main -> SistemaCadastro: excluirCadastro(email)
SistemaCadastro -> SistemaCadastro: deleta arquivo JSON
SistemaCadastro -> Main: confirma exclusão
Main -> Usuario: exibe mensagem "Cadastro excluído"
@enduml

PlantUML version 1.2020.02(Sun Mar 01 10:22:07 UTC 2020)
(GPL source distribution)
Java Runtime: OpenJDK Runtime Environment
JVM: OpenJDK 64-Bit Server VM
Java Version: 21.0.7+6-LTS
Operating System: Linux
Default Encoding: UTF-8
Language: en
Country: null
--></g></svg>